<svg width="134" height="25" viewBox="0 0 134 25" fill="none" xmlns="http://www.w3.org/2000/svg">
<path d="M5.5625 1.25V24H0.09375V1.25H5.5625ZM28.4219 1.25V24H22.9531L14.9062 9.84375V24H9.42188V1.25H14.9062L22.9531 15.4062V1.25H28.4219ZM51.1406 12.1719V13.0938C51.1406 14.8333 50.8958 16.3958 50.4062 17.7812C49.9271 19.1562 49.2448 20.3333 48.3594 21.3125C47.474 22.2812 46.4271 23.026 45.2188 23.5469C44.0104 24.0573 42.6771 24.3125 41.2188 24.3125C39.75 24.3125 38.4062 24.0573 37.1875 23.5469C35.9792 23.026 34.9271 22.2812 34.0312 21.3125C33.1458 20.3333 32.4583 19.1562 31.9688 17.7812C31.4896 16.3958 31.25 14.8333 31.25 13.0938V12.1719C31.25 10.4323 31.4896 8.86979 31.9688 7.48438C32.4583 6.09896 33.1406 4.92188 34.0156 3.95312C34.901 2.97396 35.9479 2.22917 37.1562 1.71875C38.375 1.19792 39.7188 0.9375 41.1875 0.9375C42.6458 0.9375 43.9792 1.19792 45.1875 1.71875C46.4062 2.22917 47.4583 2.97396 48.3438 3.95312C49.2292 4.92188 49.9167 6.09896 50.4062 7.48438C50.8958 8.86979 51.1406 10.4323 51.1406 12.1719ZM45.5781 13.0938V12.1406C45.5781 11.0156 45.4792 10.026 45.2812 9.17188C45.0938 8.30729 44.8125 7.58333 44.4375 7C44.0625 6.41667 43.599 5.97917 43.0469 5.6875C42.5052 5.38542 41.8854 5.23438 41.1875 5.23438C40.4583 5.23438 39.8229 5.38542 39.2812 5.6875C38.7396 5.97917 38.2865 6.41667 37.9219 7C37.5573 7.58333 37.2812 8.30729 37.0938 9.17188C36.9167 10.026 36.8281 11.0156 36.8281 12.1406V13.0938C36.8281 14.2083 36.9167 15.1979 37.0938 16.0625C37.2812 16.9167 37.5573 17.6406 37.9219 18.2344C38.2969 18.8281 38.7552 19.276 39.2969 19.5781C39.849 19.8802 40.4896 20.0312 41.2188 20.0312C41.9167 20.0312 42.5365 19.8802 43.0781 19.5781C43.6198 19.276 44.0729 18.8281 44.4375 18.2344C44.8125 17.6406 45.0938 16.9167 45.2812 16.0625C45.4792 15.1979 45.5781 14.2083 45.5781 13.0938ZM62.25 18.6406L66.9844 1.25H73.125L65.4531 24H61.4844L62.25 18.6406ZM57.9531 1.25L62.6875 18.6406L63.4844 24H59.4688L51.8438 1.25H57.9531ZM83.25 6.03125L77.7031 24H71.8125L80.1719 1.25H83.9062L83.25 6.03125ZM87.8438 24L82.2812 6.03125L81.5625 1.25H85.3438L93.75 24H87.8438ZM87.625 15.5156V19.75H75.9531V15.5156H87.625ZM95.4219 1.25H104.375C106.125 1.25 107.646 1.51042 108.938 2.03125C110.229 2.55208 111.224 3.32292 111.922 4.34375C112.63 5.36458 112.984 6.625 112.984 8.125C112.984 9.42708 112.781 10.5156 112.375 11.3906C111.969 12.2656 111.401 12.9896 110.672 13.5625C109.953 14.125 109.115 14.5885 108.156 14.9531L106.359 15.9688H98.8438L98.8125 11.7344H104.375C105.073 11.7344 105.651 11.6094 106.109 11.3594C106.568 11.1094 106.911 10.7552 107.141 10.2969C107.38 9.82812 107.5 9.27083 107.5 8.625C107.5 7.96875 107.38 7.40625 107.141 6.9375C106.901 6.46875 106.547 6.10938 106.078 5.85938C105.62 5.60938 105.052 5.48438 104.375 5.48438H100.906V24H95.4219V1.25ZM107.875 24L102.844 13.9375L108.656 13.9062L113.75 23.7656V24H107.875ZM126.531 1.25V24H121.047V1.25H126.531ZM133.375 1.25V5.48438H114.359V1.25H133.375Z" fill="black"/>
</svg>
